<svg width="81" height="148" viewBox="0 0 81 148" fill="none" xmlns="http://www.w3.org/2000/svg">
<path d="M8.95561 55.2551C13.9032 73.67 22.7216 91.6577 37.3336 105.553C50.0486 117.627 66.9678 126.531 76.6066 140.629C80.0417 145.688 82.4257 152.074 79.4264 157.335C75.453 164.305 64.7888 165.362 55.8934 165.295C28.6177 165.07 1.342 162.934 -25.5492 158.887C-28.164 158.482 -31.3171 157.672 -31.9067 155.401C-32.445 153.355 -30.548 151.512 -28.933 149.983C-13.0906 135.143 -9.45037 113.108 -11.1167 92.8494C-12.7829 72.5908 -18.9353 52.6694 -19.6275 32.3658C-19.8582 25.1033 -19.3711 17.6609 -16.2693 10.938C-9.70672 -3.27223 0.803658 -3.36216 2.3674 12.2197C3.8286 26.6772 5.16162 41.0674 8.95561 55.2551Z" fill="#818B95"/>
</svg>
