<svg width="40" height="243" viewBox="0 0 40 243" fill="none" xmlns="http://www.w3.org/2000/svg">
<path d="M-13.8685 220.071C7.82307 198.743 10.9369 167.279 9.21166 138.505C7.48643 109.73 2.1214 80.2592 10.9158 52.5377C11.8837 49.491 13.0408 46.4254 15.1448 43.8489C17.6905 40.7269 21.3934 38.5641 24.8649 36.232C30.9453 32.1321 36.6049 27.073 38.9823 20.6034C41.3598 14.1338 39.6135 6.10322 33.3017 2.30421C25.0122 -2.66084 14.0297 1.43909 4.81444 4.86196C-6.02083 8.90547 -17.361 11.8958 -28.9116 13.7765C-33.0985 14.4535 -37.4115 15.0177 -41.1565 16.8232C-45.3434 18.8356 -48.4782 22.2772 -50.7715 26.001C-55.0636 32.9972 -56.5363 41.0466 -57.9039 48.908C-64.2788 85.4876 -69.8332 122.274 -70.8641 159.286C-71.2428 172.696 -70.9903 186.199 -68.0028 199.345C-65.2466 211.476 -59.6291 230.17 -49.2146 239.009C-41.7036 245.385 -39.7048 240.702 -32.6777 235.21C-26.3238 230.245 -19.5702 225.694 -13.8685 220.071Z" fill="#818B95"/>
</svg>
