<svg width="189" height="199" viewBox="0 0 189 199" fill="none" xmlns="http://www.w3.org/2000/svg">
<path d="M61.1598 137.855C60.4405 130.288 62.0484 122.046 68.0571 116.613C73.685 111.518 81.9998 109.795 89.7434 107.772C103.496 104.194 116.698 99.0243 128.948 92.4495C139.358 86.8487 149.365 79.9367 155.014 70.3835C161.213 59.875 161.425 47.5121 163.265 35.7673C165.106 24.0225 169.613 11.3786 181.016 5.12217C190.389 -0.0477889 202.28 0.364309 213.324 1.26343C215.609 1.45075 217.936 1.6568 220.009 2.53719C224.431 4.41036 226.611 8.79359 228.176 12.8958C239.919 43.6908 236.385 77.1082 236.766 109.608C236.914 121.858 237.612 134.203 235.56 146.322C233.508 158.441 228.388 170.561 218.507 179.14C208.733 187.644 195.234 191.934 181.82 194.444C167.497 197.122 152.835 198.059 138.215 198.696C129.35 199.071 120.274 199.333 111.789 196.973C97.5082 193.001 93.5518 181.819 84.0309 173.277C72.3521 162.768 62.6408 153.421 61.1598 137.855Z" fill="#D2DAE0"/>
<path d="M25.0417 94.0462C43.2406 81.1213 71.8389 77.6679 98.3815 77.1227C144.816 76.1735 191.553 82.0301 234.359 94.1472C246.633 97.6208 259.541 102.266 264.711 110.465C271.362 121.047 262.474 133.124 251.47 141.929C223.809 164.083 181.728 177.069 138.77 180.239C104.79 182.764 39.7338 182.743 14.7935 163.437C-6.97263 146.533 4.30343 108.789 25.0417 94.0462Z" stroke="#C2A38E" stroke-width="6" stroke-miterlimit="10"/>
</svg>
