<svg width="509" height="508" viewBox="0 0 509 508" fill="none" xmlns="http://www.w3.org/2000/svg">
<path d="M-16.9828 326.11C10.2344 260.837 78.2775 209.793 152.499 170.902C226.721 132.01 308.998 102.546 383.22 63.5359C423.576 42.3117 462.525 17.2933 484.033 -16.2029C498.658 -38.9684 504.29 -64.5204 505.697 -89.8352C507.105 -116.099 503.899 -143.014 489.743 -166.965C475.899 -190.324 452.593 -209.532 429.442 -228.148C362.025 -282.394 289.289 -341.383 279.044 -415.489C276.463 -434.164 275.446 -456.693 254.016 -466.06C245.57 -469.735 235.402 -470.447 225.626 -470.21C158.13 -468.55 104.556 -427.465 40.5801 -411.043C16.6477 -404.996 -9.16177 -402.15 -30.6696 -392.131C-61.7192 -377.606 -78.2998 -350.631 -90.1878 -324.486C-119.986 -258.68 -130.544 -188.901 -137.74 -119.596C-146.969 -29.9571 -150.723 59.9787 -154.555 149.796C-156.979 206.71 -159.326 263.802 -152.521 320.538C-148.063 357.709 -136.801 504.026 -69.2274 504.381C-24.4128 504.559 -30.9825 471.893 -31.921 448.06C-33.5634 407.153 -33.407 365.535 -16.9828 326.11Z" stroke="#C2A38E" stroke-width="6" stroke-miterlimit="10"/>
</svg>
