<svg width="116" height="88" viewBox="0 0 116 88" fill="none" xmlns="http://www.w3.org/2000/svg">
<path d="M-19.5205 58.441C-12.6239 48.8523 4.61783 41.3538 23.4251 35.6407C42.2324 29.9276 63.081 25.5992 81.8883 19.8686C92.1144 16.7508 101.984 13.0756 107.434 8.15497C111.14 4.8107 112.567 1.0571 112.923 -2.66166C113.28 -6.51977 112.468 -10.4737 108.88 -13.9921C105.373 -17.4235 99.4669 -20.2452 93.6007 -22.9799C76.5176 -30.9486 58.0868 -39.6141 55.4907 -50.5004C54.8367 -53.2438 54.5791 -56.5532 49.1489 -57.9292C47.0086 -58.4692 44.4322 -58.5737 41.955 -58.5389C24.852 -58.295 11.2767 -52.2597 -4.93447 -49.8473C-10.9988 -48.9589 -17.5387 -48.5409 -22.9887 -47.0691C-30.8564 -44.9354 -35.0579 -40.9727 -38.0702 -37.132C-45.6209 -27.465 -48.2963 -17.2145 -50.1196 -7.0336C-52.4581 6.13447 -53.4094 19.3461 -54.3804 32.5403C-54.9948 40.901 -55.5893 49.2878 -53.8652 57.6223C-52.7355 63.0829 -49.8817 84.5768 -32.759 84.6291C-21.4032 84.6552 -23.068 79.8565 -23.3058 76.3555C-23.722 70.3462 -23.6823 64.2325 -19.5205 58.441Z" stroke="#C2A38E" stroke-width="6" stroke-miterlimit="10"/>
</svg>
