<svg width="509" height="479" viewBox="0 0 509 479" fill="none" xmlns="http://www.w3.org/2000/svg">
<path d="M422.55 317.449C395.415 306.839 365.248 301.651 335.781 295.58C272.182 282.494 210.215 264.987 150.815 243.355C126.168 234.395 100.899 223.962 86.1268 206.514C68.4776 185.647 69.3328 159.181 65.3676 134.542C61.6356 111.494 53.1609 88.9178 40.2544 67.8744C28.8252 49.2476 13.975 31.6819 6.04456 12.0531C-7.25064 -20.8383 1.45733 -59.0938 31.4687 -84.9708C58.8366 -108.49 99.6552 -119.866 139.463 -128.355C248.39 -151.52 371.779 -157.886 468.733 -113.736C488.248 -104.835 506.597 -93.7537 518.726 -79.1352C529.689 -65.9315 535.054 -50.4289 538.319 -35.0441C549.126 15.7078 539.252 67.6975 545.317 118.921C555.346 203.036 607.983 281.433 620.812 365.371C625.399 395.492 624.777 430.624 598.886 455.676C577.661 476.247 540.807 488.154 512.506 468.761C482.806 448.484 488.948 417.656 487.16 390.836C484.983 357.296 461.813 332.834 422.55 317.449Z" fill="#D2DAE0"/>
</svg>
