<svg width="482" height="349" viewBox="0 0 482 349" fill="none" xmlns="http://www.w3.org/2000/svg">
<path d="M180.885 340.051C267.027 340.051 336.858 267.935 336.858 178.974C336.858 90.0137 267.027 17.897 180.885 17.897C94.7439 17.897 24.9124 90.0137 24.9124 178.974C24.9124 267.935 94.7439 340.051 180.885 340.051Z" fill="#F2F2F2"/>
<path d="M205.915 203.536C171.571 258.209 180.982 327.747 180.982 327.747C180.982 327.747 246.074 308.641 280.418 253.968C314.761 199.294 305.351 129.756 305.351 129.756C305.351 129.756 240.259 148.862 205.915 203.536Z" fill="#3F3D56"/>
<path d="M180.876 326.628C180.876 326.628 180.035 326.49 178.487 326.169C177.252 325.911 175.553 325.543 173.477 325.037C154.922 320.541 105.59 305.34 73.338 265.375C32.9711 215.332 34.671 145.417 34.671 145.417C34.671 145.417 96.3934 155.725 137.064 200.665C138.827 202.596 140.542 204.598 142.209 206.67C177.333 250.212 180.607 308.798 180.867 323.281C180.903 325.451 180.876 326.628 180.876 326.628Z" fill="#222F65"/>
<path fill-rule="evenodd" clip-rule="evenodd" d="M155.856 203.536C190.199 258.209 180.789 327.747 180.789 327.747C180.789 327.747 115.697 308.641 81.3533 253.968C47.0096 199.294 56.4198 129.756 56.4198 129.756C56.4198 129.756 121.512 148.862 155.856 203.536Z" stroke="#3F3D56" stroke-width="2"/>
<path opacity="0.1" d="M180.885 324.454C179.976 325.589 179.173 326.559 178.513 327.353C177.05 329.079 176.221 329.984 176.221 329.984C176.221 329.984 175.213 328.673 173.518 326.217C164.216 312.793 134.293 265.06 136.603 209.923C136.728 207.033 136.933 204.174 137.218 201.346C138.976 203.285 140.685 205.294 142.347 207.375C177.362 251.091 180.627 309.912 180.885 324.454Z" fill="black"/>
<path d="M232.75 213.965C230.011 279.141 182.967 329.984 182.967 329.984C182.967 329.984 140.363 275.157 143.102 209.981C145.841 144.805 192.885 93.9614 192.885 93.9614C192.885 93.9614 235.488 148.789 232.75 213.965Z" fill="#222F65"/>
<path d="M183.052 327.747L192.8 96.1985" stroke="#3F3D56" stroke-width="2"/>
<path d="M241 349C374.101 349 482 341.989 482 333.34C482 324.691 374.101 317.68 241 317.68C107.899 317.68 0 324.691 0 333.34C0 341.989 107.899 349 241 349Z" fill="#3F3D56"/>
<path d="M40.0764 327.747V265.106V327.747Z" fill="#3F3D56"/>
<path d="M40.0764 327.747V265.106" stroke="#3F3D56" stroke-width="2"/>
<path d="M40.0764 274.055C44.8621 274.055 48.7416 270.048 48.7416 265.106C48.7416 260.164 44.8621 256.157 40.0764 256.157C35.2908 256.157 31.4113 260.164 31.4113 265.106C31.4113 270.048 35.2908 274.055 40.0764 274.055Z" fill="#3F3D56"/>
<path d="M40.0764 304.257C40.0764 304.257 38.8673 276.704 14.0809 279.907L40.0764 304.257Z" fill="#3F3D56"/>
<path d="M246.957 225.955V51.4551V225.955Z" fill="#3F3D56"/>
<path d="M246.957 225.955V51.4551" stroke="#3F3D56" stroke-width="2"/>
<path d="M246.957 64.8781C253.538 64.8781 258.872 59.3691 258.872 52.5736C258.872 45.778 253.538 40.269 246.957 40.269C240.377 40.269 235.043 45.778 235.043 52.5736C235.043 59.3691 240.377 64.8781 246.957 64.8781Z" fill="#3F3D56"/>
<path d="M246.957 101.791C246.957 101.791 245.295 64.2197 211.214 68.5869L246.957 101.791Z" fill="#3F3D56"/>
<path d="M388.076 129.756L377.919 149.482C377.919 149.482 304.481 163.975 313.856 186.519C323.231 209.063 333.778 242.075 339.247 241.269C344.716 240.464 374.794 222.751 375.966 217.518C377.138 212.284 349.013 187.727 349.013 187.727L395.498 178.468C395.498 178.468 402.138 210.674 393.544 232.815C384.951 254.957 379.872 314.94 385.732 315.746C391.591 316.551 406.435 321.382 413.076 316.953C419.717 312.525 422.842 215.505 422.842 215.505C422.842 215.505 436.904 151.898 428.31 144.652C419.717 137.405 388.076 129.756 388.076 129.756Z" fill="#2F2E41"/>
<path d="M403.951 306.781C403.951 306.781 394.876 301.833 392.965 305.792C392.965 305.792 394.398 317.668 388.666 319.153C382.934 320.637 380.546 331.03 388.666 332.019C396.786 333.009 402.04 330.04 404.906 330.04C407.772 330.04 404.906 319.648 404.906 319.648L403.951 306.781Z" fill="#2F2E41"/>
<path d="M360.649 225.771C360.649 225.771 350.761 222.907 349.699 227.209C349.699 227.209 353.521 238.544 348.215 241.257C342.909 243.969 342.69 254.686 350.836 253.877C358.983 253.067 363.519 249.003 366.323 248.375C369.127 247.746 364.206 238.182 364.206 238.182L360.649 225.771Z" fill="#2F2E41"/>
<path d="M409.858 60.2455C409.858 60.2455 410.243 75.2681 407.543 76.4862C404.842 77.7042 422.59 85.0125 422.59 85.0125L425.676 79.3283C425.676 79.3283 422.204 59.0275 422.976 57.4034C423.747 55.7793 409.858 60.2455 409.858 60.2455Z" fill="#9F616A"/>
<path d="M415.928 63.7593C429.089 63.7593 439.757 52.7415 439.757 39.1503C439.757 25.5591 429.089 14.5413 415.928 14.5413C402.768 14.5413 392.099 25.5591 392.099 39.1503C392.099 52.7415 402.768 63.7593 415.928 63.7593Z" fill="#2F2E41"/>
<path d="M418.094 25.7276C423.478 25.7276 427.843 21.2203 427.843 15.6602C427.843 10.1001 423.478 5.59277 418.094 5.59277C412.71 5.59277 408.346 10.1001 408.346 15.6602C408.346 21.2203 412.71 25.7276 418.094 25.7276Z" fill="#2F2E41"/>
<path d="M404.974 10.0672C404.974 4.91326 408.767 0.591775 413.762 0.0544332C413.422 0.0182585 413.081 8.99405e-05 412.74 0C407.322 0 402.93 4.50723 402.93 10.0672C402.93 15.6271 407.322 20.1344 412.74 20.1344C413.081 20.1343 413.422 20.1161 413.762 20.0799C408.767 19.5426 404.974 15.2211 404.974 10.0672Z" fill="#2F2E41"/>
<path d="M414.845 68.2339C423.818 68.2339 431.092 60.7217 431.092 51.455C431.092 42.1882 423.818 34.676 414.845 34.676C405.872 34.676 398.598 42.1882 398.598 51.455C398.598 60.7217 405.872 68.2339 414.845 68.2339Z" fill="#9F616A"/>
<path d="M427.031 73.6134C427.031 73.6134 413 78.021 405.984 73.6134C398.969 69.2058 382.209 82.0279 379.481 87.6376C376.753 93.2474 389.615 98.8571 389.615 98.8571C389.615 98.8571 385.942 109.69 386.692 115.085C387.471 120.695 386.107 132.115 386.107 132.115C386.107 132.115 420.54 155.437 428.2 144.937C429.37 143.334 439.114 105.669 439.114 105.669L452.755 91.6446C452.755 91.6446 444.18 78.8224 439.114 77.6203C434.047 76.4182 427.031 73.6134 427.031 73.6134Z" fill="#D0CDE1"/>
<path d="M332.457 155.484C332.457 155.484 306.188 169.845 311.597 173.948C317.005 178.051 339.025 157.946 339.025 157.946L332.457 155.484Z" fill="#9F616A"/>
<path d="M436.424 145.348C436.424 145.348 424.514 136.716 422.596 141.032C420.678 145.348 435.636 155.067 438.785 151.264C441.934 147.461 436.424 145.348 436.424 145.348Z" fill="#9F616A"/>
<path d="M446.005 86.1311L452.952 90.5924C452.952 90.5924 476.492 124.66 468.388 132.366C460.284 140.072 439.445 155.484 439.445 155.484C439.445 155.484 432.499 144.939 434.814 144.534C437.13 144.128 455.653 127.905 455.653 127.905L439.445 96.2704L446.005 86.1311Z" fill="#D0CDE1"/>
<path d="M383.628 85.0125L378.573 87.0377L365.353 111.745L330.359 155.895C330.359 155.895 335.025 163.591 338.914 161.971C342.802 160.351 371.963 126.327 371.963 126.327L391.016 95.5436L383.628 85.0125Z" fill="#D0CDE1"/>
<path d="M416.47 41.3873C425.742 41.3873 433.258 36.8801 433.258 31.3201C433.258 25.7602 425.742 21.2529 416.47 21.2529C407.197 21.2529 399.681 25.7602 399.681 31.3201C399.681 36.8801 407.197 41.3873 416.47 41.3873Z" fill="#2F2E41"/>
<rect x="305.447" y="249.445" width="76.9034" height="79.4203" fill="#222F65"/>
<path fill-rule="evenodd" clip-rule="evenodd" d="M358.377 304.714C366.429 304.714 371.519 297.642 371.519 286.421C371.519 271.156 360.196 260.632 343.856 260.632C326.856 260.632 315.196 272.474 315.196 289.722C315.196 307.394 326.622 318.782 344.472 318.797C347.565 318.813 350.651 318.468 353.669 317.768C354.893 317.462 355.658 316.203 355.391 314.932C355.124 313.661 353.923 312.843 352.686 313.088C350.052 313.567 347.381 313.801 344.707 313.785C330.024 313.785 320.593 304.487 320.593 289.919C320.593 275.669 330.127 265.599 343.504 265.599C357.028 265.599 366.18 274.034 366.18 286.648C366.18 294.553 363.599 299.641 359.536 299.641C357.189 299.641 355.883 298.172 355.883 295.734V276.154H350.031V280.364H349.444C348.095 277.289 345.029 275.412 341.421 275.412C334.395 275.412 329.584 281.302 329.584 289.768C329.584 298.581 334.366 304.502 341.524 304.502C345.543 304.502 348.535 302.579 349.987 299.066H350.574C351.117 302.443 354.255 304.714 358.377 304.714ZM342.609 298.899C338.458 298.899 335.906 295.507 335.906 289.904C335.906 284.285 338.414 280.984 342.683 280.984C346.98 280.984 349.738 284.391 349.738 289.904C349.738 295.416 346.98 298.899 342.609 298.899Z" fill="white"/>
</svg>
