<svg width="540" height="458" viewBox="0 0 540 458" fill="none" xmlns="http://www.w3.org/2000/svg">
<path d="M540 274.817C540 354.709 499.706 382.604 450 382.604C400.294 382.604 360 354.709 360 274.817C360 194.925 450 93.2891 450 93.2891C450 93.2891 540 194.925 540 274.817Z" fill="#F2F2F2"/>
<path d="M446.955 370.651L447.871 303.724L486 220.926L448.015 293.225L448.427 263.132L474.705 203.228L448.535 255.168V255.169L449.276 201.044L477.416 153.353L449.392 192.533L449.855 93.2891L446.947 224.67L447.186 219.25L418.576 167.271L446.727 229.655L444.061 290.102L443.982 288.497L411 233.796L443.882 294.165L443.549 301.725L443.489 301.839L443.516 302.459L436.753 455.819H445.789L446.873 376.605L479.675 316.384L446.955 370.651Z" fill="#3F3D56"/>
<path d="M49 407.888C49 429.41 38.031 436.925 24.5 436.925C10.969 436.925 0 429.41 0 407.888C0 386.366 24.5 358.987 24.5 358.987C24.5 358.987 49 386.366 49 407.888Z" fill="#F2F2F2"/>
<path d="M23.5881 432.793L23.8321 414.699L34 392.313L23.8705 411.86L23.9803 403.724L30.988 387.528L24.0095 401.571L24.2069 386.938L31.7111 374.044L24.2382 384.637L24.3616 357.806L23.586 393.325L23.6493 391.86L16.0201 377.807L23.527 394.673L22.8164 411.015L22.7953 410.582L14 395.793L22.7682 412.114L22.6795 414.158L22.6638 414.188L22.6709 414.356L20.8671 455.819H23.2772L23.566 434.402L32.3136 418.121L23.5881 432.793Z" fill="#3F3D56"/>
<path d="M3 456.409H492" stroke="#3F3D56" stroke-width="2"/>
<path d="M493 437.202C493 451.876 485.613 457 476.5 457C476.289 457 476.078 456.997 475.868 456.992C475.445 456.981 475.027 456.957 474.614 456.924C466.39 456.237 460 450.849 460 437.202C460 423.079 475.284 405.258 476.432 403.939L476.434 403.936C476.478 403.885 476.5 403.86 476.5 403.86C476.5 403.86 493 422.528 493 437.202Z" fill="#111B47"/>
<path d="M475.712 454.763L481.819 444.804L475.696 455.857L475.68 457C475.253 456.989 474.83 456.965 474.411 456.932L475.07 442.249L475.065 442.135L475.076 442.113L475.138 440.727L469 429.647L475.157 439.686L475.171 439.981L475.669 428.887L470.414 417.437L475.733 426.939L476.251 403.939L476.253 403.86V403.936L476.166 422.074L481.398 414.883L476.145 423.636L476.007 433.569L480.891 424.036L475.986 435.031L475.909 440.553L483 427.285L475.883 442.48L475.712 454.763Z" fill="#3F3D56"/>
<rect x="313" y="103.917" width="6" height="55.5012" rx="2.29166" fill="#3F3D56"/>
<rect x="124" y="60.2241" width="3" height="17.7135" rx="1.5" fill="#3F3D56"/>
<rect x="124" y="93.2891" width="4" height="31.8837" rx="1.6946" fill="#3F3D56"/>
<rect x="124" y="136.982" width="3" height="31.8837" rx="1.5" fill="#3F3D56"/>
<rect x="126" width="190" height="455.819" rx="35.694" fill="#3F3D56"/>
<rect x="202" y="14.1702" width="27" height="5.90428" rx="2.54189" fill="#E6E8EC"/>
<path d="M236 20.0746C237.657 20.0746 239 18.4885 239 16.5319C239 14.5754 237.657 12.9893 236 12.9893C234.343 12.9893 233 14.5754 233 16.5319C233 18.4885 234.343 20.0746 236 20.0746Z" fill="#E6E8EC"/>
<path d="M305 29.6279V426.198C304.998 436.037 298.223 444.012 289.867 444.01H153.133C144.777 444.012 138.002 436.037 138 426.198V29.6279C138 24.9019 139.594 20.3693 142.432 17.0275C145.27 13.6857 149.119 11.8084 153.133 11.8088H173.594V14.9033C173.596 23.0058 179.174 29.5736 186.055 29.5759H255.592C262.474 29.5759 268.053 23.0067 268.053 14.9033V11.8088H289.867C293.881 11.8084 297.73 13.6857 300.568 17.0275C303.406 20.3693 305 24.9019 305 29.6279Z" fill="white"/>
<rect x="138" y="103.917" width="167" height="226.729" fill="#F2F2F2"/>
<path d="M150 361.349L149.13 360.428C146.04 357.101 144.001 354.942 144.001 352.252C143.985 351.219 144.327 350.221 144.949 349.488C145.57 348.754 146.419 348.347 147.3 348.359C148.343 348.366 149.33 348.909 150 349.846C150.67 348.909 151.657 348.366 152.7 348.359C153.581 348.347 154.43 348.754 155.051 349.488C155.673 350.221 156.015 351.219 155.999 352.252C155.999 354.942 153.96 357.101 150.87 360.428L150 361.349Z" fill="#FF6584"/>
<path d="M181 358.441L182.734 358.987C183.363 356.977 184.85 355.438 186.709 354.872C188.568 354.307 190.561 354.787 192.036 356.156L189.387 358.987H196V351.902L193.335 354.717C191.4 352.846 188.741 352.172 186.258 352.921C183.776 353.671 181.8 355.744 181 358.441L181 358.441Z" fill="#F2F2F2"/>
<path d="M148.5 87.3847C152.642 87.3847 156 83.4195 156 78.5282C156 73.6368 152.642 69.6716 148.5 69.6716C144.358 69.6716 141 73.6368 141 78.5282C141 83.4195 144.358 87.3847 148.5 87.3847Z" fill="#111B47"/>
<rect x="162" y="73.2144" width="72" height="10.6273" fill="#111B47"/>
<rect x="143" y="376.7" width="72" height="10.6273" fill="#F2F2F2"/>
<rect x="144" y="399.137" width="151" height="10.6277" fill="#F2F2F2"/>
<path d="M174 361.349L172.156 357.467C173.068 354.834 172.229 351.796 170.189 350.341C168.149 348.886 165.53 349.459 164.046 351.685C162.563 353.91 162.668 357.109 164.292 359.187C165.916 361.266 168.564 361.59 170.503 359.947L174 361.349Z" fill="#F2F2F2"/>
<path d="M206.555 156.408H206.555C200.85 157.8 195.842 161.84 192.634 167.637C189.425 173.435 188.278 180.516 189.446 187.322L193.977 213.739L199.051 212.5L199.409 209.701L200.472 212.154L231.318 204.623L231.676 201.823L232.739 204.276L237 203.236L232.468 176.819C231.301 170.012 227.915 164.038 223.055 160.211C218.196 156.383 212.26 155.015 206.555 156.408Z" fill="#2F2E41"/>
<path d="M245.647 237.356L272 256.47L268.706 265.697L244 251.856L245.647 237.356Z" fill="#9F616A"/>
<path d="M211.906 259.366C211.906 259.366 158.392 259.366 149.565 275.616C140.738 291.867 147.91 314.617 175.495 319.817C203.079 325.017 286.937 327.617 293.557 308.117C300.178 288.617 295.213 277.566 295.213 277.566C295.213 277.566 266.524 254.166 211.906 259.366Z" fill="#111B47"/>
<path d="M258.606 275.127L288 288.134C288 288.134 300.202 277.728 294.101 266.022C288 254.316 260.269 186.679 260.269 186.679C260.269 186.679 252.505 173.672 262.488 166.519C272.471 159.365 276.353 171.071 276.353 171.071C276.353 171.071 275.799 173.672 279.681 171.721C283.563 169.77 290.774 176.274 286.891 186.679C283.009 197.085 280.236 199.686 288.555 199.036C291.559 198.801 294.202 196.277 296.352 193.147C300.474 187.147 298.634 182.315 298.322 174.62C297.788 161.437 296.914 152.842 294.101 147.658C290.219 140.505 284.673 134.651 270.253 137.903C255.833 141.155 234.757 157.414 239.749 180.826C244.74 204.239 255.833 230.253 255.833 230.253C255.833 230.253 263.597 266.672 258.606 275.127Z" fill="#111B47"/>
<path opacity="0.1" d="M259 274.881C254.238 276.432 248.257 277.188 241.82 277.423C230.587 277.834 217.943 276.66 207.845 275.33C196.937 273.89 189 272.273 189 272.273C192.687 268.205 198.354 266.595 205.012 266.008C213.28 265.278 223.08 266.112 232.543 265.754C236.032 265.609 239.524 265.92 242.955 266.68C253.395 269.033 259 274.881 259 274.881Z" fill="black"/>
<path d="M211.5 204.291C220.06 204.291 227 196.097 227 185.988C227 175.879 220.06 167.685 211.5 167.685C202.94 167.685 196 175.879 196 185.988C196 196.097 202.94 204.291 211.5 204.291Z" fill="#9F616A"/>
<path d="M209.253 200.88C209.253 200.88 211.975 213.345 209.253 214.001C206.532 214.657 200 217.937 200 217.937L208.165 221.874L223.405 238.931L236.468 246.803L243 244.179V229.746L233.203 211.377C233.203 211.377 226.671 214.001 225.038 205.473C223.405 196.944 220.139 193.664 220.139 193.664L209.253 200.88Z" fill="#9F616A"/>
<path d="M205.355 218.462H198.739C198.739 218.462 187.159 222.992 180.543 233.348C173.926 243.704 163.45 254.06 163.45 254.06C163.45 254.06 156.282 265.71 160.141 281.891C164.001 298.072 169.515 309.722 174.477 306.486C179.44 303.25 167.309 279.949 167.309 279.949L170.618 265.71C170.618 265.71 187.711 242.409 194.879 243.057C202.047 243.704 202.598 250.824 202.598 250.824L218.037 256.001L223 243.704L220.243 230.759L205.355 218.462Z" fill="#9F616A"/>
<path d="M244.775 260.074C243.739 262.166 242.979 264.433 242.522 266.794C241.838 270.283 241.459 273.845 241.393 277.424C230.22 277.83 217.645 276.669 207.601 275.353C206.713 272.567 205.737 269.361 204.784 266.13C202.212 257.397 199.822 248.483 199.822 247.174C199.822 244.594 211.335 249.109 214.076 248.464C216.817 247.819 217.913 237.499 214.076 232.339C210.238 227.179 199 218.472 199 218.472L202.837 217.182C202.837 217.182 211.335 224.599 228.877 236.854C246.42 249.109 239.293 229.759 239.293 229.759L229.151 211.377H233.537C233.537 211.377 242.034 228.469 246.42 236.209C250.806 243.949 249.161 251.689 244.775 260.074Z" fill="#3F3D56"/>
<path d="M194.366 168.749L222.282 162.002L225.788 182.231L197.872 188.977L194.366 168.749Z" fill="#2F2E41"/>
<path d="M282.5 165.323C287.194 165.323 291 160.829 291 155.285C291 149.742 287.194 145.248 282.5 145.248C277.806 145.248 274 149.742 274 155.285C274 160.829 277.806 165.323 282.5 165.323Z" fill="#3F3D56"/>
<path d="M282.5 160.599C284.985 160.599 287 158.22 287 155.285C287 152.35 284.985 149.971 282.5 149.971C280.015 149.971 278 152.35 278 155.285C278 158.22 280.015 160.599 282.5 160.599Z" fill="white"/>
<path d="M39.4672 266.878L38.8935 271.988C38.6994 273.718 38.5051 275.45 38.4005 277.19C38.0527 282.98 38.7011 288.792 38.5304 294.592C38.3991 299.058 37.7825 303.52 38.0803 307.975C38.3438 311.915 39.3157 315.74 40.2821 319.532L41.6634 324.951C41.6863 325.279 41.8406 325.576 42.0805 325.755C42.3205 325.933 42.6188 325.972 42.8872 325.86L49 325.22C48.6085 323.149 48.1731 320.99 47.9627 318.885C47.7964 317.219 47.6964 315.546 47.592 313.874C47.2667 308.662 46.8984 303.453 46.5302 298.245L45.8832 289.095C45.6026 285.126 45.3186 281.134 44.4527 277.279C43.5897 273.376 41.8731 269.795 39.4672 266.878Z" fill="#111B47"/>
<path opacity="0.1" d="M39.4672 266.878L38.8935 271.988C38.6994 273.718 38.5051 275.45 38.4005 277.19C38.0527 282.98 38.7011 288.792 38.5304 294.592C38.3991 299.058 37.7825 303.52 38.0803 307.975C38.3438 311.915 39.3157 315.74 40.2821 319.532L41.6634 324.951C41.6863 325.279 41.8406 325.576 42.0805 325.755C42.3205 325.933 42.6188 325.972 42.8872 325.86L49 325.22C48.6085 323.149 48.1731 320.99 47.9627 318.885C47.7964 317.219 47.6964 315.546 47.592 313.874C47.2667 308.662 46.8984 303.453 46.5302 298.245L45.8832 289.095C45.6026 285.126 45.3186 281.134 44.4527 277.279C43.5897 273.376 41.8731 269.795 39.4672 266.878Z" fill="black"/>
<path d="M50.8466 443.348C50.4903 444.173 50.1802 445.025 49.9183 445.898C49.2235 448.307 49.1185 450.89 49.0197 453.432C48.9722 453.923 49.0108 454.42 49.1329 454.892C49.4299 455.806 50.286 456.27 51.0862 456.524C54.4378 457.589 57.9716 456.586 61.4284 456.221C64.8213 455.863 68.2776 456.122 71.6008 455.238C72.092 455.128 72.5667 454.934 73.0095 454.66C73.852 454.013 74.4804 453.043 74.7895 451.914C74.8906 451.625 74.9586 451.321 74.9916 451.011C75.1014 449.673 74.1143 448.511 73.0392 448.071C71.9641 447.631 70.7951 447.704 69.6633 447.567C64.8768 446.986 61.0155 442.683 60.245 437.072C60.2049 436.78 54.6487 436.952 54.0639 437.331C53.3794 437.775 52.9651 438.882 52.5795 439.63C51.9564 440.839 51.3788 442.079 50.8466 443.348Z" fill="#3F3D56"/>
<path opacity="0.1" d="M50.8466 443.348C50.4903 444.173 50.1802 445.025 49.9183 445.898C49.2235 448.307 49.1185 450.89 49.0197 453.432C48.9722 453.923 49.0108 454.42 49.1329 454.892C49.4299 455.806 50.286 456.27 51.0862 456.524C54.4378 457.589 57.9716 456.586 61.4284 456.221C64.8213 455.863 68.2776 456.122 71.6008 455.238C72.092 455.128 72.5667 454.934 73.0095 454.66C73.852 454.013 74.4804 453.043 74.7895 451.914C74.8906 451.625 74.9586 451.321 74.9916 451.011C75.1014 449.673 74.1143 448.511 73.0392 448.071C71.9641 447.631 70.7951 447.704 69.6633 447.567C64.8768 446.986 61.0155 442.683 60.245 437.072C60.2049 436.78 54.6487 436.952 54.0639 437.331C53.3794 437.775 52.9651 438.882 52.5795 439.63C51.9564 440.839 51.3788 442.079 50.8466 443.348Z" fill="black"/>
<path d="M59.8466 443.348C59.4903 444.173 59.1802 445.025 58.9183 445.898C58.2235 448.307 58.1185 450.89 58.0197 453.432C57.9722 453.923 58.0108 454.42 58.1329 454.892C58.4299 455.806 59.286 456.27 60.0862 456.524C63.4378 457.589 66.9716 456.586 70.4284 456.221C73.8213 455.863 77.2776 456.122 80.6008 455.238C81.092 455.128 81.5667 454.934 82.0095 454.66C82.852 454.013 83.4804 453.043 83.7895 451.914C83.8906 451.625 83.9586 451.321 83.9916 451.011C84.1014 449.673 83.1143 448.511 82.0392 448.071C80.9641 447.631 79.7951 447.704 78.6633 447.567C73.8768 446.986 70.0155 442.683 69.245 437.072C69.2049 436.78 63.6487 436.952 63.0639 437.331C62.3794 437.775 61.9651 438.882 61.5795 439.63C60.9564 440.839 60.3788 442.079 59.8466 443.348Z" fill="#3F3D56"/>
<path d="M82.9989 379.008C83.0691 392.053 79.8876 404.803 76.156 417.065C74.6786 421.919 73.1109 426.731 71.4529 431.5C70.4713 434.327 69.3653 437.463 70.4172 440.253C67.3902 438.88 64.2909 438.068 61.0953 438.702C62.3117 435.746 62.1973 432.305 62.2515 429.013C62.3571 424.545 62.7605 420.093 63.4579 415.701C64.5283 409.017 66.3648 402.541 68.9157 396.454C69.4328 395.171 69.7893 393.804 69.9735 392.397C70.3047 389.269 70.1523 386.094 69.5239 383.031C68.3579 376.246 66.1444 369.778 62.9962 363.957C62.9862 364.087 62.9761 364.218 62.9641 364.348C62.7737 366.288 62.4997 368.214 62.1431 370.121C61.4285 374.161 60.5955 378.204 60.7199 382.266C60.8539 386.574 60.63 390.887 60.0515 395.143C59.8678 396.815 59.5028 398.451 58.9656 400.011C58.6163 400.945 58.1607 401.823 57.8856 402.79C57.6128 403.908 57.4703 405.065 57.4621 406.229C57.0546 416.052 57.4561 428.622 59.1402 438.251C56.3022 438.096 53.482 438.862 50.9806 440.468C48.9452 433.62 47.6485 423.894 46.6789 416.682C45.581 408.163 45.8042 399.475 47.3373 391.052C47.8142 388.242 47.9929 385.371 47.8693 382.507C47.6525 376.803 46.4762 371.224 45.308 365.688C44.7138 362.878 44.1197 360.067 43.5255 357.256C42.6804 353.251 41.834 349.246 40.9863 345.24C40.4242 342.576 39.8562 339.855 40.0328 337.114C40.1569 335.612 40.4215 334.13 40.8217 332.698C42.0862 327.824 43.9767 323.212 46.426 319.029C56.1794 319.682 66.0513 318.593 75.7906 317.7C76.2642 317.588 76.7557 317.688 77.1717 317.98C77.5023 318.382 77.6992 318.914 77.7257 319.476C78.9461 327.717 80.1659 335.958 81.385 344.199C81.9787 347.64 82.3272 351.135 82.4268 354.647C82.4448 358.146 81.9691 361.633 82.0795 365.13C82.228 369.841 82.9748 374.295 82.9989 379.008Z" fill="#2F2E41"/>
<path opacity="0.1" d="M63 365.104C62.806 367.016 62.5268 368.916 62.1634 370.795C60.0015 366.482 57.6719 362.278 55.6818 357.856C55.1684 356.716 54.6796 355.563 54.1887 354.411C53.6999 353.26 53.211 352.108 52.7222 350.957C52.4481 350.311 52.172 349.662 51.9245 348.999C51.5202 348.044 51.2101 347.039 51 346.005C51.724 345.851 53.5076 348.102 54.0434 348.69C55.1427 349.94 56.1806 351.26 57.1523 352.644C58.3281 354.179 59.4074 355.809 60.3819 357.521C61.6274 359.855 62.5132 362.421 63 365.104Z" fill="black"/>
<path d="M72 245.168C72 245.168 66.4486 255.75 67.4766 257.965C68.5047 260.18 50 255.997 50 255.997C50 255.997 60.0748 245.414 59.0467 240.984C58.0187 236.554 72 245.168 72 245.168Z" fill="#EFB7B9"/>
<path d="M66.5 247.984C73.4036 247.984 79 241.375 79 233.223C79 225.07 73.4036 218.462 66.5 218.462C59.5964 218.462 54 225.07 54 233.223C54 241.375 59.5964 247.984 66.5 247.984Z" fill="#EFB7B9"/>
<path d="M71.8634 255.321C70.5287 253.142 68.7168 251.427 66.6195 250.357C65.4121 249.85 64.1639 249.489 62.8941 249.279L57.9192 248.252C56.7 248.001 55.395 247.76 54.2639 248.351C53.6858 248.693 53.1594 249.145 52.7059 249.687C50.9767 251.566 49.301 253.632 47.1331 254.716C46.5396 255.013 45.9189 255.231 45.3263 255.53C42.9007 256.755 41.0871 259.314 40.0567 262.167C38.9757 265.16 38.9444 268.404 39.0297 271.653C39.027 272.774 39.121 273.893 39.3102 274.992C39.5612 276.038 39.8765 277.061 40.2538 278.053C40.9408 280.173 41.5162 282.34 41.9767 284.542C43.2655 290.33 44.337 296.178 45.1911 302.084C45.2656 302.933 45.4784 303.757 45.818 304.512C46.298 305.263 46.8789 305.917 47.5379 306.45C48.0597 306.957 48.542 307.518 48.9792 308.125C49.1924 308.385 49.3488 308.701 49.4346 309.047C49.596 309.92 48.9383 310.668 48.4045 311.306C47.2956 312.633 46.494 314.271 46.0758 316.063C45.8153 316.431 45.6831 316.901 45.7059 317.378C45.8127 317.709 45.8524 318.064 45.8221 318.416C45.7197 318.737 45.5598 319.028 45.3532 319.271C44.8721 320.006 44.6836 320.948 44.8358 321.857C48.7009 323.827 52.8373 324.964 57.0462 325.211C58.0769 325.267 59.1116 325.268 60.1356 325.416C60.866 325.521 61.5875 325.702 62.3184 325.802C63.3817 325.919 64.4505 325.951 65.5175 325.898C71.0675 325.769 76.7804 325.6 81.8769 323.018C82.357 319.951 81.3227 316.826 80.6739 313.803C79.6421 308.994 79.3821 304.006 78.6144 299.13C78.089 295.792 77.3258 292.507 76.8882 289.152C76.4506 285.797 76.348 282.319 77.1341 279.052C77.8308 276.158 78.041 273.211 78.7631 270.325C79.4852 267.439 79.9912 264.31 79.176 261.459C78.1653 257.923 75.0376 255.126 71.8634 255.321Z" fill="#111B47"/>
<path d="M77.8375 226.133C78.4466 223.554 77.2487 220.869 75.8156 218.774C74.2757 216.523 72.286 214.492 69.8565 213.926C67.8821 213.467 65.8362 214.022 63.8287 213.837C62.0493 213.673 60.3443 212.933 58.5741 212.668C56.9728 212.469 55.355 212.54 53.7713 212.879C52.2659 213.134 50.7946 213.61 49.3932 214.297C44.0609 217.037 40.9365 223.803 40.2115 230.514C39.4865 237.224 40.7578 243.985 42.0215 250.587L43.1638 256.555C44.3527 262.767 45.5457 269.011 45.8638 275.363C46.1819 281.716 45.5884 288.237 43.3349 294.038C50.6209 289.5 56.2662 282.089 59.2499 273.145C60.0602 270.688 60.6601 268.139 61.5576 265.724C62.3299 263.646 63.3185 261.678 64.0029 259.558C64.7749 257.164 65.1455 254.622 65.095 252.066C65.056 250.146 64.7789 248.235 64.8272 246.315C64.8755 244.395 65.2967 242.391 66.4413 241.003C67.4588 239.769 68.9045 239.176 70.2156 238.399C72.2775 237.171 74.0788 235.428 75.4896 233.296C76.3151 232.048 76.3591 231.516 76.5691 230.077C76.7733 228.677 77.5168 227.492 77.8375 226.133Z" fill="#2F2E41"/>
<path d="M77.8934 335.27C78.0205 336.795 77.7861 338.358 78.0684 339.854C78.2805 340.978 78.7734 342 79.0632 343.1C79.351 344.374 79.499 345.687 79.5037 347.006C79.5456 348.112 79.4737 349.457 78.6458 349.975C78.2822 350.203 77.8461 350.207 77.4676 350.398C77.0892 350.589 76.7645 351.131 76.9812 351.545C77.1634 351.892 77.577 351.896 77.916 351.979C78.255 352.061 78.628 352.476 78.4313 352.812C78.3522 352.922 78.247 353.001 78.1293 353.04C77.7827 353.163 77.4545 353.349 77.1568 353.592C76.8558 353.846 76.701 354.278 76.7565 354.71C76.7978 354.916 76.9172 355.089 77.0803 355.177C77.2434 355.266 77.432 355.261 77.5917 355.164C77.4398 355.548 77.3568 355.964 77.348 356.387C78.6727 357.06 80.1638 356.18 81.4105 355.324C81.9512 354.97 82.4731 354.577 82.9735 354.148C85.0118 352.288 86.1396 349.358 85.9861 346.32C85.9284 345.567 85.8306 344.819 85.6936 344.08C85.5003 342.796 85.2451 341.526 84.9294 340.276C84.573 338.957 84.0831 337.696 83.663 336.404C82.7678 333.651 82.1915 330.769 81.3854 327.977C81.3621 327.708 81.2447 327.462 81.0615 327.299C80.8783 327.136 80.6459 327.07 80.4202 327.118C79.5118 327.062 78.6014 327.162 77.717 327.412C77.1825 327.597 76.3058 328.003 76.0662 328.664C75.8503 329.26 76.2121 329.794 76.4417 330.305C77.1933 331.833 77.6864 333.519 77.8934 335.27Z" fill="#EFB7B9"/>
<path opacity="0.1" d="M77.3143 262.154C77.5724 262.472 77.7886 262.836 77.9552 263.233C79.6742 267.014 79.696 271.539 79.7768 275.853C79.8678 280.709 80.0874 285.56 80.307 290.41L80.9638 304.915C81.0265 306.301 81.0894 307.688 81.25 309.062C82.0226 309.298 82.0546 310.506 81.965 311.464C81.412 317.384 80.0359 323.477 81.477 329.173C81.5321 329.466 81.6481 329.738 81.814 329.962C81.0876 329.685 80.3099 329.672 79.5776 329.926C78.8592 330.109 78.1685 330.427 77.4527 330.624C76.5418 330.875 75.5092 330.983 74.8878 331.827C74.1856 329.267 73.6264 326.653 73.214 324.003C72.8729 321.594 72.78 319.09 71.969 316.852C71.6415 315.948 71.204 315.11 70.8048 314.25C68.7044 309.723 67.676 304.602 66.6709 299.555C66.2197 297.162 66.1115 294.692 66.3511 292.255C66.4939 291.143 66.5777 290.02 66.6021 288.895C66.5381 287.708 66.4095 286.528 66.2173 285.361C65.793 281.939 65.9917 278.447 66.7996 275.127C67.5523 272.045 68.2122 268.802 69.7862 266.213C71.3603 263.624 74.6584 262.198 77.3143 262.154Z" fill="black"/>
<path d="M77.3143 260.974C77.5724 261.292 77.7886 261.655 77.9552 262.053C79.6742 265.833 79.696 270.359 79.7768 274.672C79.8678 279.529 80.0874 284.38 80.307 289.23L80.9638 303.734C81.0265 305.12 81.0894 306.508 81.25 307.882C82.0226 308.118 82.0546 309.326 81.965 310.284C81.412 316.203 80.0359 322.296 81.477 327.992C81.5321 328.286 81.6481 328.557 81.814 328.781C81.0876 328.504 80.3099 328.491 79.5776 328.745C78.8592 328.928 78.1685 329.246 77.4527 329.443C76.5418 329.694 75.5092 329.802 74.8878 330.646C74.1856 328.086 73.6264 325.472 73.2141 322.822C72.8729 320.413 72.78 317.909 71.969 315.671C71.6415 314.767 71.204 313.929 70.8048 313.069C68.7044 308.542 67.676 303.421 66.6709 298.374C66.2197 295.981 66.1115 293.512 66.3511 291.074C66.4939 289.962 66.5777 288.84 66.6021 287.715C66.5381 286.528 66.4095 285.347 66.2173 284.18C65.793 280.759 65.9917 277.266 66.7996 273.947C67.5523 270.865 68.2122 267.622 69.7862 265.033C71.3603 262.444 74.6584 261.018 77.3143 260.974Z" fill="#111B47"/>
<g opacity="0.1">
<path d="M75.697 217.966C74.1619 215.698 72.1785 213.652 69.7566 213.083C67.7884 212.62 65.7489 213.179 63.7478 212.993C61.9739 212.828 60.2743 212.083 58.5096 211.815C56.9134 211.615 55.3006 211.686 53.7219 212.028C52.2212 212.285 50.7545 212.765 49.3575 213.456C48.6026 213.85 47.8822 214.329 47.2063 214.886C48.4517 214.334 49.7438 213.939 51.0607 213.707C52.6394 213.365 54.2521 213.294 55.8484 213.494C57.613 213.762 59.3127 214.507 61.0865 214.672C63.0877 214.858 65.1271 214.299 67.0953 214.762C69.5173 215.331 71.5007 217.377 73.0358 219.645C74.4644 221.755 75.6586 224.459 75.0514 227.057C74.7316 228.425 73.9905 229.62 73.7869 231.029C73.5776 232.478 73.5338 233.015 72.7109 234.271C71.6516 235.887 70.3704 237.285 68.9196 238.408C69.32 238.185 69.7233 237.967 70.1147 237.732C72.1701 236.496 73.9657 234.74 75.3721 232.592C76.195 231.336 76.2388 230.8 76.4482 229.35C76.6518 227.941 77.3928 226.746 77.7126 225.378C78.3199 222.78 77.1257 220.076 75.697 217.966Z" fill="black"/>
<path d="M66.3521 240.355C66.5667 240.095 66.8004 239.857 67.0503 239.645C65.8571 240.321 64.6019 240.917 63.6909 242.034C62.5499 243.432 62.13 245.45 62.0819 247.384C62.0337 249.318 62.31 251.243 62.3488 253.177C62.3992 255.75 62.0297 258.312 61.2602 260.723C60.5779 262.857 59.5924 264.84 58.8226 266.933C57.9279 269.366 57.3299 271.933 56.5221 274.407C53.9419 282.216 49.36 288.896 43.4066 293.529C43.3763 293.61 43.3491 293.692 43.3181 293.772C50.5814 289.202 56.2089 281.737 59.1833 272.728C59.9911 270.254 60.5891 267.687 61.4838 265.254C62.2536 263.161 63.2391 261.178 63.9214 259.044C64.6909 256.633 65.0604 254.072 65.01 251.498C64.9712 249.564 64.695 247.639 64.7431 245.705C64.7912 243.771 65.2111 241.753 66.3521 240.355Z" fill="black"/>
</g>
<path d="M338.525 454.427C337.925 455.233 336.897 455.395 335.967 455.501C334.765 455.694 333.546 455.72 332.339 455.578C330.905 455.341 330.045 456.247 328.735 455.55C327.942 455.128 326.722 455.971 325.929 455.55C324.843 454.972 321.091 454.852 320.429 453.724C319.768 452.597 319.835 450.815 320.881 450.149C321.178 449.992 321.484 449.859 321.797 449.751C323.548 448.976 327.096 443.134 328.959 442.835C329.883 442.788 330.801 443.028 331.609 443.529C333.446 444.435 336.689 445.151 337.491 447.451C338.115 449.243 339.824 452.676 338.525 454.427Z" fill="#2F2E41"/>
<path d="M351.47 455.11C352.063 455.963 353.079 456.134 353.999 456.247C355.186 456.452 356.391 456.479 357.584 456.328C359.002 456.077 360.73 457.526 362.025 456.788C362.809 456.342 364.015 456.574 364.798 456.128C365.872 455.516 370.922 456.881 371.576 455.686C372.229 454.492 372.163 452.605 371.129 451.9C370.836 451.735 370.533 451.594 370.223 451.479C368.492 450.659 362.768 443.152 360.926 442.836C360.012 442.785 359.105 443.04 358.306 443.57C356.491 444.53 353.284 445.288 352.492 447.723C351.875 449.62 350.186 453.256 351.47 455.11Z" fill="#2F2E41"/>
<path d="M357.088 322.194C357.653 323.466 358.147 324.78 358.566 326.128C363.581 341.67 364.001 358.653 364.209 375.267C364.191 377.968 364.323 380.668 364.603 383.349C364.813 385.049 365.145 386.768 364.931 388.467C364.746 389.937 364.155 391.386 364.391 392.846C364.496 393.501 364.764 394.108 364.87 394.763C364.951 395.48 364.934 396.209 364.82 396.921L364.147 402.781C363.764 406.119 362.88 409.335 362.928 412.703C362.961 415 362.994 417.302 363.213 419.585C363.434 421.903 363.847 424.204 363.868 426.537C363.884 428.284 363.68 430.022 363.548 431.762C363.362 434.22 363.32 436.689 363.422 439.154C363.5 441.052 363.686 443.024 364.546 444.636C363.583 446.254 362.629 447.704 361.087 448.496C357.953 450.105 354.358 449.559 350.972 448.983C351.159 448.251 351.45 447.422 351.179 446.727C351.02 446.39 350.824 446.079 350.598 445.8C349.859 444.568 349.345 443.171 349.091 441.695C348.681 439.946 348.271 438.062 349.112 436.383C349.402 435.785 349.53 435.098 349.479 434.413C348.778 423.396 346.686 411.997 348.613 401.184C348.819 400.03 349.064 398.883 349.179 397.711C349.282 396.027 349.299 394.336 349.23 392.649L349.19 390.3C349.089 387.794 349.176 385.225 348.747 382.746C348.44 380.971 347.866 379.187 348.573 377.378C348.886 376.537 348.847 375.574 348.468 374.771C346.981 371.719 345.785 368.484 344.901 365.125C344.717 364.186 344.466 363.267 344.15 362.379C343.718 361.442 343.222 360.548 342.667 359.706C340.989 356.856 339.985 353.548 339 350.284C339.105 349.984 339.025 349.568 338.751 349.611C338.48 349.692 338.247 349.895 338.104 350.176C336.755 352.301 336.642 355.136 336.581 357.783C336.478 360.243 336.514 362.708 336.688 365.162C336.804 366.448 336.995 367.724 337.094 369.012C337.223 371.414 337.19 373.825 336.996 376.222L336.307 388.016C336.214 388.991 336.264 389.978 336.455 390.933C336.898 392.586 337.113 394.31 337.094 396.042C336.913 403.166 337.438 410.291 338.661 417.273C338.997 419.201 339.386 421.116 339.672 423.055C340.345 427.624 340.437 432.28 340.528 436.916C340.583 439.766 340.623 442.719 339.664 445.339C339.29 446.147 339.015 447.013 338.848 447.911C338.844 448.375 338.792 448.835 338.691 449.283C338.41 450.132 337.566 450.493 336.806 450.687C335.38 451.05 333.917 451.172 332.461 451.049C332.119 451.042 331.782 450.955 331.47 450.791C330.927 450.462 330.639 449.763 330.226 449.235C329.335 448.095 327.854 447.746 327.043 446.528C326.028 445.005 326.454 442.798 327.058 441C327.662 439.202 328.41 437.25 327.89 435.416C327.277 433.255 325.105 432.091 324.522 429.919C326.186 421.158 322.099 412.097 322.449 403.131C322.531 401.043 322.84 398.969 322.846 396.879C322.862 391.494 320.871 386.254 321.198 380.883C322.031 367.232 318.062 353.606 316.38 340.063C316.062 338.042 315.943 335.984 316.026 333.931C316.275 330.541 317.619 327.386 319.234 324.559C320.392 322.533 321.784 320.55 323.702 319.602C325.281 318.822 327.05 318.825 328.764 318.841C333.04 318.88 337.316 318.919 341.591 319.009C344.501 318.961 347.407 319.265 350.263 319.918C352.576 320.537 354.739 321.8 357.088 322.194Z" fill="#2F2E41"/>
<path d="M288.641 259.94C288.212 257.495 289.023 254.879 288.389 252.496C288.16 251.636 287.598 250.743 286.825 250.768C286.075 250.792 285.567 251.647 284.901 252.053C283.828 252.706 282.525 252.113 281.453 251.458C280.381 250.803 279.186 250.062 278.023 250.455C277.886 251.303 278.378 252.111 278.913 252.708C279.506 253.23 279.996 253.892 280.352 254.651C280.527 255.471 280.593 256.318 280.549 257.162C280.671 259.099 281.724 260.766 282.777 262.273C284.473 264.7 286.274 267.026 288.173 269.24C288.17 269.236 291.055 265.081 290.999 264.355C290.947 263.67 289.976 263.03 289.624 262.478C289.141 261.725 288.806 260.859 288.641 259.94Z" fill="#A1616A"/>
<path d="M370.591 309.833C370.833 310.599 371.015 311.392 371.133 312.201C371.834 316.343 372.276 320.542 372.712 324.737C372.828 325.857 372.944 326.978 372.98 328.106C373.103 330.784 372.651 333.455 371.669 335.854C370.669 338.26 368.971 340.126 366.903 341.088C366.267 341.363 365.377 341.414 365.099 340.663C365 340.316 365.002 339.938 365.105 339.592C365.356 338.475 365.868 337.472 366.2 336.387C366.692 334.765 366.774 333 366.435 331.321C366.305 330.679 366.029 329.963 365.496 329.835C365.762 331.315 365.538 332.864 364.873 334.145C364.722 334.502 364.461 334.772 364.147 334.895C363.694 334.951 363.269 334.617 363.124 334.09C362.994 333.574 362.966 333.028 363.041 332.495C363.212 329.804 363.548 327.132 364.047 324.502C364.641 321.616 365.582 318.768 365.521 315.792C365.467 313.096 364.585 310.449 364.832 307.769C364.836 307.604 364.879 307.443 364.958 307.308C365.035 307.214 365.13 307.143 365.234 307.101C365.851 306.79 366.487 306.534 367.135 306.334C367.518 306.216 368.825 305.663 369.192 305.91C369.489 306.111 369.581 307.312 369.729 307.718C369.992 308.438 370.342 309.105 370.591 309.833Z" fill="#A1616A"/>
<path d="M326 230.271C330.971 230.271 335 225.513 335 219.643C335 213.774 330.971 209.016 326 209.016C321.029 209.016 317 213.774 317 219.643C317 225.513 321.029 230.271 326 230.271Z" fill="#A1616A"/>
<path d="M334.684 227.449C334.683 228.148 334.73 228.846 334.824 229.537C334.952 230.235 335.132 230.918 335.364 231.578C335.673 232.651 336.109 233.666 336.659 234.593C337.218 235.526 338.055 236.173 339 236.403C332.678 239.918 325.928 242.233 319 243.26C320.092 242.399 321 241.248 321.653 239.9C322 239.034 322.236 238.112 322.356 237.164C322.946 233.197 322.646 229.115 321.487 225.328C321.372 224.955 321.259 224.497 321.477 224.194C321.569 224.083 321.682 223.996 321.805 223.941C324.552 222.561 327.519 221.905 330.501 222.017C331.263 222.023 332.025 222.063 332.785 222.129C333.193 222.164 334.096 222.062 334.421 222.417C334.809 222.841 334.615 224.156 334.627 224.731L334.684 227.449Z" fill="#A1616A"/>
<path d="M338.95 235.918C336.148 231.712 331.259 230.286 327.1 232.46C322.694 234.924 320.524 240.839 316.649 244.318C315.768 245.09 314.828 245.768 313.843 246.342C313.261 246.719 312.641 247.006 311.997 247.198C311.272 247.385 310.516 247.359 309.795 247.562C308.421 248.035 307.25 249.099 306.518 250.54C306.156 251.294 305.753 252.021 305.314 252.717C304.909 253.28 304.406 253.735 303.978 254.273C302.437 256.213 302.019 258.997 301.667 261.614C300.462 263.101 299.146 264.46 297.736 265.675C297.292 266.075 296.8 266.394 296.275 266.621C294.92 267.136 293.425 266.481 292.269 265.504C291.114 264.527 290.173 263.238 289.033 262.235C287.987 263.987 286.893 265.745 285.777 267.439C285.609 267.761 285.352 268.007 285.049 268.138C284.84 268.963 285.342 269.818 285.718 270.558L287.737 274.531C288.404 275.977 289.222 277.32 290.173 278.529C291.138 279.745 292.455 280.495 293.867 280.633C294.758 280.624 295.641 280.426 296.472 280.049C300.319 278.534 303.85 276.116 307.509 274.061C308.172 273.617 308.914 273.362 309.677 273.316C310.46 273.292 311.161 273.883 311.39 274.76C311.809 277.242 312.226 279.714 312.803 282.152C313.347 284.452 313.853 286.763 314.319 289.086C314.631 290.507 314.854 291.954 314.986 293.413C315.046 294.242 315.053 295.074 315.059 295.906L315.137 305.957C315.145 307.039 314.619 307.714 314.213 308.686C313.592 310.195 313.498 311.928 313.952 313.517C314.18 314.301 314.536 315.025 314.788 315.799C315.398 317.669 315.375 319.728 315.343 321.73L315.27 326.316C315.252 326.506 315.281 326.698 315.355 326.869C315.594 327.306 316.17 327.05 316.534 326.754L318.365 325.268C320.815 325.663 323.29 325.803 325.761 325.686C332.789 325.567 339.818 325.895 346.829 326.47C349.169 326.661 351.587 326.869 353.798 325.955C354.92 325.491 355.954 324.75 357.101 324.378C357.574 324.292 358.023 324.075 358.411 323.746C359.053 323.051 358.883 321.831 358.621 320.854C358.392 319.999 358.132 319.157 357.841 318.327C357.541 317.564 357.297 316.774 357.111 315.963C356.76 314.133 357.101 312.02 356.129 310.53C353.952 307.195 355.493 302.065 354.579 298.006C354.284 296.693 353.847 295.427 353.57 294.108C353.396 293.28 353.286 292.436 353.176 291.593C352.89 289.77 352.748 287.92 352.752 286.066C352.778 285.138 352.878 284.216 352.978 283.295L353.669 276.902C354.534 278.792 355.135 280.833 355.449 282.946C356.078 286.102 356.853 289.215 357.77 292.273C358.292 294.117 358.813 295.961 359.376 297.788C359.733 298.828 360.008 299.904 360.197 301.003C360.321 301.889 360.325 302.792 360.412 303.684C360.602 305.597 361.173 307.431 362.081 309.037C362.248 309.409 362.526 309.698 362.862 309.849C363.088 309.898 363.321 309.887 363.544 309.816C365.988 309.251 368.353 308.293 370.572 306.968C371.045 306.74 371.456 306.364 371.759 305.883C372.357 304.745 371.689 303.324 371.398 302.032C371.087 300.648 371.16 298.982 370.229 298.054C366.987 294.824 368.596 288.264 366.974 283.655C366.689 282.846 366.357 282.059 366.112 281.233C365.924 280.601 365.788 279.95 365.651 279.3C364.518 273.932 363.306 268.588 362.014 263.268C360.675 257.753 360.818 252.007 359.132 246.624C358.815 245.495 358.401 244.407 357.897 243.377C357.326 242.3 356.563 241.38 355.661 240.681C353.214 238.786 350.744 237.172 347.87 236.484C344.995 235.797 341.883 235.903 338.95 235.918Z" fill="#D0CDE1"/>
<path d="M317.599 222.157C316.349 221.367 316.679 219.221 316.466 217.574C316.029 214.184 312.766 212.173 312 208.865C312.88 208.992 313.773 208.844 314.589 208.435C314.746 207.336 314.561 206.208 314.067 205.257C316.751 203.977 318.923 201.466 321.648 200.313C325.075 198.862 328.891 199.752 332.348 201.101C334.073 201.774 335.868 202.647 336.911 204.395C338.056 206.314 338.039 208.84 337.977 211.183C337.881 214.856 337.757 218.662 336.364 221.953C334.59 226.144 329.567 230.025 325.417 228.89C323.691 228.418 323.183 227.146 322.456 225.385C322.003 224.289 321.833 223.017 320.814 222.447C319.817 221.89 318.61 222.796 317.599 222.157Z" fill="#2F2E41"/>
<g opacity="0.1">
<path d="M355.612 300.283C355.624 300.573 355.631 300.864 355.633 301.157C355.621 300.868 355.615 300.577 355.612 300.283Z" fill="black"/>
<path d="M315.526 311.244C316.136 313.126 316.113 315.199 316.081 317.213C316.073 317.739 316.064 318.265 316.056 318.791C316.017 317.704 315.839 316.631 315.526 315.608C315.274 314.83 314.918 314.101 314.69 313.312C314.3 311.933 314.314 310.439 314.731 309.071C314.959 309.812 315.288 310.506 315.526 311.244Z" fill="black"/>
</g>
<g opacity="0.1">
<path d="M314.483 206.615L314.474 206.62C314.398 205.939 314.242 205.286 314.013 204.695C314.155 204.604 314.295 204.507 314.434 204.406C314.544 205.13 314.56 205.881 314.483 206.615Z" fill="black"/>
</g>
<path d="M24 185.398L21.8249 183.055C14.1007 174.587 9.00126 169.09 9.00126 162.244C8.9626 159.612 9.81766 157.073 11.3717 155.206C12.9257 153.34 15.0463 152.303 17.2505 152.333C19.8566 152.35 22.3247 153.734 24 156.117C25.6752 153.734 28.1434 152.35 30.7494 152.333C32.9537 152.303 35.0743 153.34 36.6283 155.206C38.1823 157.073 39.0374 159.612 38.9987 162.244C38.9987 169.09 33.8992 174.587 26.1751 183.055L24 185.398Z" fill="#FF6584"/>
<path fill-rule="evenodd" clip-rule="evenodd" d="M28 179.493L25.8249 177.15C18.1007 168.682 13.0013 163.186 13.0013 156.339C12.9626 153.708 13.8177 151.169 15.3717 149.302C16.9257 147.436 19.0463 146.399 21.2505 146.429C23.8566 146.446 26.3247 147.83 28 150.213C29.6752 147.83 32.1434 146.446 34.7494 146.429C36.9537 146.399 39.0743 147.436 40.6283 149.302C42.1823 151.169 43.0374 153.708 42.9987 156.339C42.9987 163.186 37.8992 168.682 30.1751 177.15L28 179.493Z" stroke="#3F3D56" stroke-width="2"/>
</svg>
