<svg width="459" height="345" viewBox="0 0 459 345" fill="none" xmlns="http://www.w3.org/2000/svg">
<path d="M94.6889 150.061C71.4654 150.182 52.5624 150.572 52.5624 150.572C52.5624 150.572 75.0316 116.814 94.6046 129.321C114.178 141.828 136.662 150.132 136.662 150.132C136.662 150.132 117.912 149.94 94.6889 150.061Z" fill="#F2F2F2"/>
<path d="M354.557 160.402C357.196 160.402 359.335 157.957 359.335 154.941C359.335 151.924 357.196 149.479 354.557 149.479C351.918 149.479 349.778 151.924 349.778 154.941C349.778 157.957 351.918 160.402 354.557 160.402Z" fill="#FF6584"/>
<path d="M319.187 241.575L355.49 193.928L356.611 195.043L320.307 242.69L319.187 241.575Z" fill="#3F3D56"/>
<path d="M356.468 203.002C360.691 203.002 364.114 199.089 364.114 194.263C364.114 189.437 360.691 185.525 356.468 185.525C352.246 185.525 348.823 189.437 348.823 194.263C348.823 199.089 352.246 203.002 356.468 203.002Z" fill="#3F3D56"/>
<path d="M333.805 223.755C333.805 223.755 348.484 202.376 329.709 187.71L333.805 223.755Z" fill="#3F3D56"/>
<path d="M90.3862 261.335C117.287 318.343 174.38 342.815 174.38 342.815C174.38 342.815 187.858 274.86 160.957 217.852C134.057 160.844 76.9638 136.371 76.9638 136.371C76.9638 136.371 63.4856 204.327 90.3862 261.335Z" fill="#3F3D56"/>
<path d="M108.585 242.827C157.144 276.313 175.845 342.824 175.845 342.824C175.845 342.824 115.818 355.045 67.2595 321.56C18.7013 288.074 0 221.562 0 221.562C0 221.562 60.0271 209.341 108.585 242.827Z" fill="#111B47"/>
<path d="M301.224 243.122C252.402 276.15 233.186 342.542 233.186 342.542C233.186 342.542 293.125 355.385 341.947 322.357C390.769 289.328 409.986 222.936 409.986 222.936C409.986 222.936 350.047 210.093 301.224 243.122Z" fill="#3F3D56"/>
<path d="M318.947 263.319C291.61 320.026 234.339 343.909 234.339 343.909C234.339 343.909 221.389 275.852 248.726 219.146C276.063 162.439 333.334 138.557 333.334 138.557C333.334 138.557 346.284 206.613 318.947 263.319Z" fill="#111B47"/>
<path d="M219.693 108.016C213.944 102.071 213.139 92.08 217.841 85.0339C217.541 85.3557 217.247 85.6899 216.966 86.0451C211.444 93.0287 211.919 103.809 218.026 110.123C224.134 116.437 233.561 115.895 239.083 108.911C239.364 108.556 239.625 108.189 239.875 107.815C234.217 113.871 225.443 113.959 219.693 108.016Z" fill="#2F2E41"/>
<path d="M205.949 119.987C223.102 119.987 237.008 104.093 237.008 84.4874C237.008 64.8814 223.102 48.9875 205.949 48.9875C188.795 48.9875 174.889 64.8814 174.889 84.4874C174.889 104.093 188.795 119.987 205.949 119.987Z" fill="#2F2E41"/>
<path d="M197.097 129.852L198.028 127.115L181.079 143.325L160.59 156.376C160.59 156.376 150.159 110.906 149.414 110.064C148.669 109.222 135.259 77.224 129.298 92.3808C123.338 107.538 140.846 116.379 140.846 116.379C140.846 116.379 141.405 171.744 159.286 171.323C177.167 170.902 199.332 152.587 199.705 150.903C200.077 149.219 197.097 129.852 197.097 129.852Z" fill="#FFB8B8"/>
<path d="M202.126 121.079C212.418 121.079 220.762 111.543 220.762 99.7795C220.762 88.016 212.418 78.4797 202.126 78.4797C191.834 78.4797 183.49 88.016 183.49 99.7795C183.49 111.543 191.834 121.079 202.126 121.079Z" fill="#FFB8B8"/>
<path d="M205.355 115.345C205.355 115.345 210.195 122.52 208.706 123.364C207.217 124.208 198.655 124.63 193.443 131.804C188.231 138.978 199.771 157.125 199.771 157.125L243.698 123.786L225.83 117.033C225.83 117.033 213.545 109.437 213.917 101.419L205.355 115.345Z" fill="#FFB8B8"/>
<path d="M264.723 345H215.381C212.586 321.693 211.294 300.334 211.294 300.334C211.294 300.334 210.573 321.819 208.655 345H145.263C154.249 276.359 196.849 201.926 196.849 201.926C196.849 201.926 197.219 191.787 198.331 190.096C199.443 188.411 192.035 187.988 188.699 175.318C186.666 167.583 188.494 162.522 190.232 159.757C190.829 158.761 191.563 157.881 192.406 157.152C192.406 157.152 193.147 148.287 192.406 147.019C192.311 146.853 193.042 146.27 194.394 145.385C195.521 144.642 197.079 143.688 198.942 142.591C209.616 136.279 230.278 125.111 237.355 121.307C238.908 120.467 239.809 119.987 239.809 119.987L252.401 125.054C262.399 128.853 262.399 152.931 262.399 152.931L261.833 153.913L246.721 180.019L237.956 195.169C240.18 196.854 235.737 207.416 235.737 207.416C235.737 207.416 242.068 217.79 247.217 233.625C250.129 242.437 252.115 251.613 253.133 260.959C253.782 267.015 253.909 273.13 253.513 279.216C252.141 299.563 258.242 324.292 264.723 345Z" fill="#2F2E41"/>
<path d="M252.252 127.015C251.431 126.482 250.448 126.394 249.565 126.775C248.683 127.157 247.991 127.969 247.674 128.995C246.572 132.499 245.455 139.804 245.853 154.993C246.585 182.926 246.951 201.971 246.951 201.971V244.294C246.951 244.294 230.845 284.924 239.63 284.924C248.415 284.924 254.638 252.759 254.638 252.759C254.638 252.759 262.691 204.087 260.129 195.623C260.128 195.623 267.353 137.147 252.252 127.015Z" fill="#FFB8B8"/>
<path d="M200.215 93.7717C208.924 93.7717 215.983 88.1479 215.983 81.2105C215.983 74.2732 208.924 68.6494 200.215 68.6494C191.506 68.6494 184.446 74.2732 184.446 81.2105C184.446 88.1479 191.506 93.7717 200.215 93.7717Z" fill="#2F2E41"/>
<path d="M225.54 70.8341C233.985 70.8341 240.831 63.0094 240.831 53.3571C240.831 43.7048 233.985 35.8801 225.54 35.8801C217.095 35.8801 210.249 43.7048 210.249 53.3571C210.249 63.0094 217.095 70.8341 225.54 70.8341Z" fill="#2F2E41"/>
<path d="M236.053 65.7927C228.103 65.7915 221.48 58.961 220.819 50.0803C220.784 50.5518 220.762 51.0272 220.762 51.5087C220.762 60.9753 227.608 68.6495 236.053 68.6495C244.497 68.6495 251.343 60.9753 251.343 51.5087C251.343 51.0272 251.321 50.5518 251.286 50.0803C250.625 58.961 244.002 65.7915 236.053 65.7927Z" fill="#2F2E41"/>
<path d="M220.178 95.9771C220.874 95.787 221.131 94.1584 220.751 92.3394C220.37 90.5204 219.498 89.1999 218.802 89.39C218.105 89.58 217.849 91.2087 218.229 93.0277C218.609 94.8467 219.482 96.1672 220.178 95.9771Z" fill="#FFB8B8"/>
<path d="M219.806 95.9558C220.334 95.9558 220.762 95.4669 220.762 94.8638C220.762 94.2607 220.334 93.7717 219.806 93.7717C219.278 93.7717 218.85 94.2607 218.85 94.8638C218.85 95.4669 219.278 95.9558 219.806 95.9558Z" fill="#F2F2F2"/>
<path fill-rule="evenodd" clip-rule="evenodd" d="M38.2272 160.948C38.2272 164.869 41.0083 168.048 44.4391 168.048C47.8682 168.044 50.6472 164.868 50.651 160.948C50.651 157.027 47.8698 153.849 44.4391 153.849C41.0083 153.849 38.2272 157.027 38.2272 160.948ZM39.2624 160.948C39.2624 157.68 41.58 155.031 44.439 155.031C47.2966 155.035 49.6123 157.682 49.6156 160.948C49.6156 164.216 47.298 166.865 44.439 166.865C41.58 166.865 39.2624 164.216 39.2624 160.948Z" fill="#3F3D56"/>
<path fill-rule="evenodd" clip-rule="evenodd" d="M290.526 117.802H303.906V102.51H290.526V117.802ZM302.877 116.625H291.555V103.686H302.877V116.625Z" fill="#3F3D56"/>
<path d="M416.752 197.03C393.529 197.151 374.626 197.54 374.626 197.54C374.626 197.54 397.095 163.782 416.668 176.289C436.241 188.796 458.726 197.101 458.726 197.101C458.726 197.101 439.976 196.908 416.752 197.03Z" fill="#F2F2F2"/>
<path d="M345.077 82.3388C321.853 82.4602 302.95 82.8494 302.95 82.8494C302.95 82.8494 325.419 49.0907 344.992 61.5981C364.565 74.1054 387.05 82.4097 387.05 82.4097C387.05 82.4097 368.3 82.2174 345.077 82.3388Z" fill="#F2F2F2"/>
<path d="M125.536 97.1945L71.9017 65.5485C68.2391 63.3875 66.7968 58.2287 68.6801 54.0261L81.3156 25.8304C81.6864 25.0029 82.3373 24.3867 83.1158 24.1262L125.39 9.9825C128.899 8.80823 132.596 10.9896 133.806 14.9483L147.695 60.4108C148.397 62.706 148.245 65.231 147.275 67.3939L135.577 93.4978C134.673 95.516 133.107 97.0393 131.224 97.7325C129.341 98.4258 127.295 98.2322 125.536 97.1945Z" fill="#F2F2F2"/>
<path opacity="0.1" d="M127.437 86.7551L73.4014 60.2766C71.6603 59.249 73.2928 60.8285 74.1881 58.8301L80.9807 27.1418L147.175 66.2105L130.44 89.9608C129.545 91.9592 129.178 87.7827 127.437 86.7551Z" fill="black"/>
<path d="M82.4381 68.315C78.5404 66.0242 76.8844 60.8249 78.7393 56.702L97.3729 15.2847C99.2279 11.1617 103.891 9.67642 107.789 11.9672L142.974 32.6464C146.872 34.9372 148.528 40.1365 146.673 44.2594L128.04 85.6767C126.185 89.7997 121.521 91.285 117.624 88.9942L82.4381 68.315Z" fill="#111B47"/>
<path opacity="0.1" d="M138.573 61.6429L124.676 92.6801L75.4987 63.6401L89.3961 32.6035L107.874 60.7714L138.573 61.6429Z" fill="black"/>
<path d="M107.276 62.813L83.419 26.7078C83.119 26.2538 82.6353 26.0076 82.1386 26.0561C81.6419 26.1045 81.2019 26.4408 80.9739 26.9462L67.3981 57.0449C66.8495 58.261 66.7472 59.6757 67.1137 60.9778C67.4801 62.28 68.2852 63.3628 69.352 63.9881L128.501 98.6627C129.568 99.2881 130.809 99.4047 131.951 98.987C133.093 98.5692 134.043 97.6513 134.591 96.4352L147.935 66.8522C148.213 66.2354 148.193 65.4988 147.883 64.9024C147.572 64.306 147.015 63.9334 146.406 63.9163L107.276 62.813Z" fill="#F2F2F2"/>
<path d="M102.652 15.4897L116.439 23.5925L115.437 25.8208L101.649 17.7181L102.652 15.4897Z" fill="#F2F2F2"/>
<path d="M97.8855 22.9521L138.83 47.0159L138.257 48.2893L97.3126 24.2255L97.8855 22.9521Z" fill="#F2F2F2"/>
<path d="M95.9518 27.2505L136.896 51.3143L136.323 52.5877L95.3789 28.5239L95.9518 27.2505Z" fill="#F2F2F2"/>
<path d="M94.0183 31.5479L134.963 55.6117L134.39 56.885L93.4454 32.8212L94.0183 31.5479Z" fill="#F2F2F2"/>
<path d="M108.062 13.2496C109.686 9.63874 108.447 5.20915 105.293 3.35579C102.14 1.50243 98.2663 2.92714 96.6418 6.53796C95.0172 10.1488 96.2567 14.5784 99.4102 16.4317C102.564 18.2851 106.437 16.8604 108.062 13.2496Z" fill="white"/>
<path fill-rule="evenodd" clip-rule="evenodd" d="M95.4603 5.66966C97.3918 1.37871 102.003 -0.31111 105.759 1.89534C109.505 4.11167 110.981 9.36776 109.063 13.66C107.131 17.9509 102.52 19.6407 98.7642 17.4343C95.008 15.2278 93.5288 9.9606 95.4603 5.66966ZM97.3074 6.95817L99.0007 12.9876L108.509 9.50926L108.034 7.81806L100.008 10.7595L98.7878 6.4156L97.3074 6.95817Z" fill="#57B894"/>
</svg>
