<svg xmlns="http://www.w3.org/2000/svg" id="Black" width="906" height="181" viewBox="0 0 906 181">
  <defs>
    <style>
      .cls-1 {
        font-size: 75px;
        font-family: Mont-HeavyDEMO, Mont;
        font-weight: 800;
      }

      .cls-2 {
        fill-rule: evenodd;
      }
    </style>
  </defs>
  <text id="sungnikah_" data-name="sungnikah!" class="cls-1" transform="translate(-3.784 145.143) scale(2.166)">sungnikah!</text>
  <path class="cls-2" d="M434.49,5.453s3.926,2.432,12.6-6.2c0,0-2.159,6.127,6.572,12.15,0,0-5.28-2.546-12.143,6.527C441.522,17.926,442.143,8.649,434.49,5.453Zm63.811,55.8a9.7,9.7,0,0,1-7.13,5.258s4.463,2.348,4.045,6.95a11.747,11.747,0,0,1,6.946-4.019A8.216,8.216,0,0,1,498.3,61.256Zm-8.273-12.661L470.8,72.048,472.82,72.1l32.7-20.146ZM453.977,38.319l32.511,8.472L467.256,70.245l-7.909-1.451ZM435.4,33.478l15.634,4.142,4.451,29.828L453,67.072Zm44.8-10.963L491.041,45.2,507,48.883,496.153,26.2ZM436.275,29.3l20.562-13.618,16.416,4.007-20.424,14.4Zm19.957,5.811,20.239-13.16,10.248,21.58Z"/>
</svg>
