<svg width="126" height="13" viewBox="0 0 126 13" fill="none" xmlns="http://www.w3.org/2000/svg">
<path d="M61.578 8.688C61.758 8.328 61.488 8.22 61.326 8.544C60.948 9.318 59.76 11.604 59.004 11.568C58.77 11.568 58.68 11.226 58.824 10.488C59.058 9.39 60.12 7.5 60.498 7.122C60.246 7.176 59.976 7.068 59.742 7.05C59.166 7.014 58.914 7.446 58.518 8.202C58.05 9.084 57.546 9.966 56.916 10.722C56.07 11.73 55.08 11.874 55.26 10.614C55.368 9.93 55.854 9.048 55.998 8.796C56.646 7.734 57.582 6.672 58.392 6.222C59.058 5.862 59.724 6.006 59.922 6.672C60.228 6.726 60.372 6.42 60.12 6.15C59.094 5.034 57.024 5.7 55.944 6.978C53.226 10.236 54.594 13.386 56.664 11.406C57.186 10.902 57.672 10.182 57.96 9.714C57.42 11.604 58.266 12.072 58.86 12.036C59.94 11.946 61.038 9.786 61.578 8.688ZM67.601 8.688C67.781 8.328 67.493 8.202 67.349 8.526C66.971 9.282 65.819 11.64 64.883 11.64C64.649 11.64 64.451 11.478 64.595 10.74C64.829 9.48 66.755 6.096 66.755 6.096C66.143 5.88 64.289 7.014 63.425 7.788C62.867 8.274 62.291 8.958 61.931 9.408C62.579 8.112 63.569 6.312 64.109 6.024C63.857 6.078 63.587 5.97 63.353 5.952C62.777 5.916 62.543 6.222 62.075 7.086C61.193 8.706 60.455 10.416 59.591 12.126C59.771 12.018 59.933 12.036 60.203 12.018C60.581 12.018 60.743 12 60.887 11.748C61.895 9.75 62.777 8.742 63.389 8.184C64.775 6.888 65.099 7.374 64.667 8.076C64.163 8.886 63.821 9.498 63.677 9.966C63.137 11.64 64.001 12.072 64.631 12.072C66.017 12.072 67.061 9.786 67.601 8.688ZM76.2583 0.803999C75.9883 0.84 75.7183 0.75 75.4843 0.731999C74.9083 0.678 74.6023 0.858 74.2603 1.668C73.8283 2.64 73.0363 4.296 72.1723 5.934C70.8763 5.178 69.3103 5.808 68.3023 6.978C66.9883 8.562 65.9983 11.46 67.6903 11.928C68.9323 12.252 69.7783 10.812 70.3183 9.93C70.1383 10.668 70.2823 11.208 70.4803 11.514C70.7143 11.856 71.0023 12 71.2903 12C72.7303 12 73.7743 9.66 74.2063 8.652C74.3683 8.292 74.0803 8.22 73.9363 8.544C73.5583 9.3 72.5143 11.532 71.6143 11.532C70.7683 11.532 71.3263 10.02 71.5063 9.606C72.5503 7.122 75.7183 1.308 76.2583 0.803999ZM72.0283 6.222C71.1823 7.806 70.2823 9.354 69.6163 10.29C68.0863 12.45 67.0063 11.334 68.1943 9.102C69.1483 7.338 71.1283 5.34 72.0283 6.222Z" fill="#5B5B5F"/>
<line x1="-4.37114e-08" y1="7.5" x2="42" y2="7.5" stroke="black"/>
<line x1="84" y1="7.5" x2="126" y2="7.5" stroke="black"/>
</svg>
